<svg width="76" height="76" viewBox="0 0 76 76" fill="none" xmlns="http://www.w3.org/2000/svg">
<g clip-path="url(#clip0_5415_1288)">
<path fill-rule="evenodd" clip-rule="evenodd" d="M13.5226 57.5475C14.2418 61.6267 18.1318 64.3505 22.211 63.6312C26.2901 62.9119 29.0139 59.0219 28.2947 54.9428C27.5754 50.8636 23.6854 48.1398 19.6063 48.8591C15.5271 49.5784 12.8033 53.4684 13.5226 57.5475ZM21.3427 58.7072C19.983 58.9469 18.6864 58.0389 18.4466 56.6793C18.2069 55.3196 19.1148 54.0229 20.4745 53.7831C21.8342 53.5434 23.1309 54.4514 23.3706 55.811C23.6104 57.1707 22.7024 58.4674 21.3427 58.7072Z" fill="#333333" fill-opacity="0.1"/>
<path fill-rule="evenodd" clip-rule="evenodd" d="M33.2187 54.0746C33.9379 58.1537 37.8279 60.8775 41.9071 60.1582C45.9862 59.439 48.71 55.549 47.9907 51.4698L46.2543 41.6218C45.535 37.5426 41.645 34.8188 37.5659 35.5381C33.4867 36.2574 30.7629 40.1474 31.4822 44.2265L33.2187 54.0746ZM41.0388 55.2342C39.6791 55.4739 38.3824 54.566 38.1427 53.2063L36.4062 43.3583C36.1665 41.9986 37.0744 40.7019 38.4341 40.4621C39.7938 40.2224 41.0905 41.1304 41.3302 42.49L43.0667 52.3381C43.3065 53.6978 42.3985 54.9945 41.0388 55.2342Z" fill="#333333" fill-opacity="0.1"/>
<path fill-rule="evenodd" clip-rule="evenodd" d="M52.9148 50.6016C53.634 54.6808 57.524 57.4045 61.6032 56.6853C65.6823 55.966 68.4061 52.076 67.6868 47.9969L64.2139 28.3008C63.4946 24.2216 59.6046 21.4978 55.5255 22.2171C51.4463 22.9364 48.7225 26.8264 49.4418 30.9055L52.9148 50.6016ZM60.7349 51.7612C59.3752 52.001 58.0785 51.093 57.8388 49.7334L54.3658 30.0373C54.1261 28.6776 55.0341 27.3809 56.3937 27.1411C57.7534 26.9014 59.0501 27.8093 59.2899 29.169L62.7628 48.8651C63.0026 50.2248 62.0946 51.5215 60.7349 51.7612Z" fill="#333333" fill-opacity="0.1"/>
<path fill-rule="evenodd" clip-rule="evenodd" d="M11.6088 72.6086C11.8486 73.9683 13.1452 74.8763 14.505 74.6365L72.6085 64.3913C73.9682 64.1515 74.8761 62.8549 74.6364 61.4951C74.3966 60.1354 73.1 59.2275 71.7402 59.4672L13.6367 69.7125C12.277 69.9522 11.3691 71.2489 11.6088 72.6086Z" fill="#333333" fill-opacity="0.1"/>
<path d="M56.772 14.8894C57.0117 16.2491 56.1038 17.5457 54.7441 17.7855C53.3843 18.0253 52.0877 17.1173 51.8479 15.7576L51.1595 11.8534L43.294 23.0866C40.918 26.4798 36.2414 27.3042 32.8485 24.9284L32.3516 24.5805C31.2206 23.7886 29.6617 24.0635 28.8698 25.1945L15.5146 44.2677C14.7226 45.3987 13.1638 45.6735 12.0328 44.8816C10.9017 44.0897 10.6269 42.5308 11.4188 41.3998L24.774 22.3266C27.1498 18.9335 31.8265 18.1089 35.2195 20.4848L35.7163 20.8326C36.8474 21.6246 38.4062 21.3498 39.1982 20.2187L47.0638 8.98551L43.1596 9.67393C41.7998 9.91368 40.5032 9.00576 40.2634 7.64603C40.0237 6.28629 40.9316 4.98965 42.2913 4.74989L47.2153 3.88165C51.2945 3.16239 55.1845 5.88618 55.9037 9.96533L56.772 14.8894Z" fill="#333333" fill-opacity="0.1"/>
</g>
<defs>
<clipPath id="clip0_5415_1288">
<rect width="64" height="64" fill="white" transform="translate(0.929413 12.0429) rotate(-10)"/>
</clipPath>
</defs>
</svg>
