<svg width="1600" height="2800" viewBox="0 0 1600 2800" fill="none" xmlns="http://www.w3.org/2000/svg">
<path fill-rule="evenodd" clip-rule="evenodd" d="M1400 700C1676.14 700 1900 476.142 1900 200C1900 -76.1424 1676.14 -300 1400 -300C1123.86 -300 900 -76.1424 900 200C900 476.142 1123.86 700 1400 700ZM1400 800C1731.37 800 2000 531.371 2000 200C2000 -131.371 1731.37 -400 1400 -400C1068.63 -400 800 -131.371 800 200C800 531.371 1068.63 800 1400 800Z" fill="#EBF0F5"/>
<path fill-rule="evenodd" clip-rule="evenodd" d="M200 2300C476.142 2300 700 2076.14 700 1800C700 1523.86 476.142 1300 200 1300C-76.1424 1300 -300 1523.86 -300 1800C-300 2076.14 -76.1424 2300 200 2300ZM200 2400C531.371 2400 800 2131.37 800 1800C800 1468.63 531.371 1200 200 1200C-131.371 1200 -400 1468.63 -400 1800C-400 2131.37 -131.371 2400 200 2400Z" fill="#EBF0F5"/>
</svg>
