<svg width="33" height="32" viewBox="0 0 33 32" fill="none" xmlns="http://www.w3.org/2000/svg">
<g clip-path="url(#clip0_5628_1138)">
<path d="M7.75 9.75C8.44036 9.75 9 9.19036 9 8.5C9 7.80964 8.44036 7.25 7.75 7.25C7.05964 7.25 6.5 7.80964 6.5 8.5C6.5 9.19036 7.05964 9.75 7.75 9.75Z" fill="#FFCC33"/>
<path d="M17.75 9.75C18.4404 9.75 19 9.19036 19 8.5C19 7.80964 18.4404 7.25 17.75 7.25C17.0596 7.25 16.5 7.80964 16.5 8.5C16.5 9.19036 17.0596 9.75 17.75 9.75Z" fill="#FFCC33"/>
<path d="M5.5 23.5V18.5C5.5 15.7386 7.73856 13.5 10.5 13.5H6.75C3.98856 13.5 1.75 15.7386 1.75 18.5V23.5C1.75 26.2614 3.98856 28.5 6.75 28.5H10.5C7.73856 28.5 5.5 26.2614 5.5 23.5Z" fill="#333333" fill-opacity="0.1"/>
<path d="M6.75 29.75H18.75C21.5046 29.75 23.8486 27.9586 24.6785 25.4796L26.8765 26.7489C27.4462 27.0773 28.0924 27.2502 28.75 27.25C30.8177 27.25 32.5 25.5677 32.5 23.5V18.5C32.5 16.4323 30.8177 14.75 28.75 14.75C28.0924 14.7498 27.4463 14.9226 26.8766 15.2511L24.6784 16.5204C23.8486 14.0414 21.5046 12.25 18.75 12.25H6.75C3.30375 12.25 0.5 15.0538 0.5 18.5V23.5C0.5 26.9463 3.30375 29.75 6.75 29.75ZM28.1269 17.4159C28.3175 17.3058 28.5271 17.25 28.75 17.25C29.4393 17.25 30 17.8108 30 18.5V23.5C30 24.1893 29.4393 24.75 28.75 24.75C28.5272 24.75 28.3175 24.6942 28.1268 24.584L25 22.7784V19.2216L28.1269 17.4159ZM3 18.5C3 16.4323 4.68225 14.75 6.75 14.75H18.75C20.8177 14.75 22.5 16.4323 22.5 18.5V23.5C22.5 25.5677 20.8177 27.25 18.75 27.25H6.75C4.68225 27.25 3 25.5677 3 23.5V18.5ZM2.97581 10.447C3.65931 10.3499 4.13469 9.71706 4.03756 9.03356C4.01252 8.85681 3.99997 8.67852 4 8.5C4 6.43225 5.68225 4.75 7.75 4.75C9.81775 4.75 11.5 6.43225 11.5 8.5C11.5 9.19037 12.0596 9.75 12.75 9.75C13.4404 9.75 14 9.19037 14 8.5C14 6.43225 15.6823 4.75 17.75 4.75C19.8177 4.75 21.5 6.43225 21.5 8.5C21.5 8.67881 21.4874 8.85837 21.4624 9.03362C21.3653 9.71712 21.8407 10.3499 22.5242 10.4471C23.209 10.5444 23.8407 10.0674 23.9376 9.38531C23.979 9.09394 24 8.79606 24 8.5C24 5.05375 21.1963 2.25 17.75 2.25C15.7078 2.25 13.8912 3.2345 12.75 4.75394C11.6088 3.2345 9.79225 2.25 7.75 2.25C4.30375 2.25 1.5 5.05375 1.5 8.5C1.5 8.79606 1.521 9.09394 1.56237 9.38531C1.6595 10.0687 2.2925 10.5442 2.97581 10.447Z" fill="#333333"/>
<path d="M16.25 19.75H18.75C19.4404 19.75 20 19.1904 20 18.5C20 17.8096 19.4404 17.25 18.75 17.25H16.25C15.5596 17.25 15 17.8096 15 18.5C15 19.1904 15.5596 19.75 16.25 19.75Z" fill="#333333"/>
</g>
<defs>
<clipPath id="clip0_5628_1138">
<rect width="32" height="32" fill="white" transform="translate(0.5)"/>
</clipPath>
</defs>
</svg>
