<svg width="33" height="32" viewBox="0 0 33 32" fill="none" xmlns="http://www.w3.org/2000/svg">
<g clip-path="url(#clip0_5628_1191)">
<path d="M5.5 2.56957L5.24931 2.45745C4.93411 2.32 4.59387 2.24929 4.25 2.24976C2.86931 2.24976 1.75 3.36907 1.75 4.74976V22.2498C1.75 23.3026 2.40081 24.2034 3.32194 24.5718L5.5 25.4609V2.56957Z" fill="#333333" fill-opacity="0.1"/>
<path d="M2.85406 25.731L15.0996 30.7292L15.1079 30.7325C16.0046 31.0903 17.0046 31.0891 17.9005 30.7292L30.1461 25.731C31.5763 25.1573 32.5001 23.7913 32.5001 22.25V4.74976C32.5001 2.68201 30.8179 0.999756 28.7501 0.999756C28.2296 0.999756 27.7252 1.10476 27.2507 1.31182L27.2403 1.31638L16.995 5.89826C16.6831 6.03301 16.3167 6.03294 16.0048 5.89819L5.75962 1.31638C5.75623 1.31487 5.75284 1.31337 5.74944 1.31188C5.27506 1.10476 4.77063 0.999756 4.25 0.999756C2.18225 0.999756 0.5 2.68201 0.5 4.74976V22.2498C0.5 23.7912 1.42388 25.1572 2.85406 25.731ZM3 4.74976C3 4.06051 3.56075 3.49976 4.25 3.49976C4.42263 3.49976 4.589 3.53382 4.74469 3.60107L14.9904 8.18313L15.0008 8.18769C15.4755 8.39448 15.9879 8.50081 16.5057 8.50002C17.0235 8.49922 17.5356 8.39131 18.0097 8.18307L28.2549 3.60119C28.4113 3.53378 28.5798 3.49923 28.7501 3.49969C29.4393 3.49969 30.0001 4.06044 30.0001 4.74969V22.2499C30.0001 22.7643 29.6914 23.2201 29.2139 23.4112L29.2057 23.4144L16.9603 28.4126C16.6686 28.5282 16.3316 28.5282 16.0399 28.4126L3.79431 23.4146L3.78619 23.4113C3.30856 23.2203 3 22.7643 3 22.2498V4.74976Z" fill="#333333"/>
<path d="M21.7141 23.7181L26.7141 21.7186C27.3551 21.4622 27.667 20.7348 27.4106 20.0938C27.1543 19.4528 26.4269 19.1409 25.7858 19.3973L20.7858 21.3968C20.1448 21.6531 19.833 22.3806 20.0893 23.0216C20.3445 23.6595 21.0701 23.9756 21.7141 23.7181ZM6.24977 9.71376L11.2498 11.8973C11.8797 12.1724 12.6181 11.8873 12.8956 11.252C13.1718 10.6193 12.883 9.88245 12.2503 9.60614L7.25027 7.42264C6.6177 7.14639 5.88077 7.43526 5.60445 8.06795C5.3282 8.70064 5.61714 9.43745 6.24977 9.71376ZM20.5492 17.3425C20.7184 17.457 20.913 17.5283 21.1161 17.5502C21.3192 17.5721 21.5245 17.5439 21.7142 17.4681L26.7142 15.4686C26.9462 15.3758 27.145 15.2157 27.2851 15.0088C27.4252 14.8019 27.5001 14.5578 27.5001 14.308V8.5682C27.5001 8.36063 27.4484 8.15633 27.3497 7.97373C27.251 7.79114 27.1083 7.636 26.9346 7.52232C26.761 7.40864 26.5617 7.34 26.3549 7.3226C26.148 7.3052 25.9401 7.33958 25.7499 7.42264L20.7499 9.6057C20.527 9.703 20.3374 9.86321 20.2042 10.0667C20.071 10.2702 20 10.5081 20 10.7513V16.3075C20 16.7222 20.2058 17.11 20.5492 17.3425ZM22.5 11.5695L25 10.478V13.4616L22.5 14.4613V11.5695ZM12.2141 15.1468L7.21414 13.1473C7.02447 13.0715 6.81911 13.0433 6.61602 13.0652C6.41293 13.0871 6.2183 13.1584 6.04914 13.2729C5.88002 13.3874 5.74154 13.5417 5.64581 13.7221C5.55008 13.9025 5.50003 14.1037 5.50002 14.308V20.558C5.5 20.8078 5.57487 21.0519 5.71495 21.2588C5.85503 21.4657 6.0539 21.6258 6.28589 21.7186L11.2859 23.7181C11.4756 23.7939 11.6809 23.8221 11.884 23.8002C12.0871 23.7783 12.2817 23.707 12.4509 23.5925C12.62 23.478 12.7585 23.3237 12.8543 23.1433C12.95 22.9629 13.0001 22.7617 13.0001 22.5575V16.3075C13.0001 16.0576 12.9252 15.8135 12.7851 15.6066C12.645 15.3997 12.4461 15.2396 12.2141 15.1468ZM10.5 20.7113L8.00002 19.7116V16.1541L10.5 17.1538V20.7113Z" fill="#333333"/>
<path d="M17.75 12.2498C17.75 11.5594 17.1904 10.9998 16.5 10.9998C15.8096 10.9998 15.25 11.5594 15.25 12.2498V24.7498C15.25 25.4401 15.8096 25.9998 16.5 25.9998C17.1904 25.9998 17.75 25.4401 17.75 24.7498V12.2498Z" fill="#FFCC33"/>
</g>
<defs>
<clipPath id="clip0_5628_1191">
<rect width="32" height="32" fill="white" transform="translate(0.5)"/>
</clipPath>
</defs>
</svg>
