<svg width="33" height="32" viewBox="0 0 33 32" fill="none" xmlns="http://www.w3.org/2000/svg">
<g clip-path="url(#clip0_5445_346)">
<path d="M5.33334 2.56969L5.08266 2.45757C4.76745 2.32012 4.42721 2.24941 4.08334 2.24988C2.70266 2.24988 1.58334 3.36919 1.58334 4.74988V22.2499C1.58334 23.3027 2.23416 24.2035 3.15528 24.5719L5.33334 25.461V2.56969Z" fill="#333333" fill-opacity="0.1"/>
<path d="M2.68741 25.7311L14.933 30.7293L14.9412 30.7326C15.8379 31.0904 16.838 31.0892 17.7338 30.7293L29.9794 25.7311C31.4096 25.1574 32.3335 23.7914 32.3335 22.2501V4.74988C32.3335 2.68213 30.6512 0.999878 28.5835 0.999878C28.063 0.999878 27.5585 1.10488 27.084 1.31194L27.0737 1.3165L16.8283 5.89838C16.5165 6.03313 16.15 6.03307 15.8382 5.89832L5.59297 1.3165C5.58958 1.31499 5.58618 1.31349 5.58278 1.312C5.10841 1.10488 4.60397 0.999878 4.08334 0.999878C2.01559 0.999878 0.333344 2.68213 0.333344 4.74988V22.2499C0.333344 23.7913 1.25722 25.1573 2.68741 25.7311ZM2.83334 4.74988C2.83334 4.06063 3.39409 3.49988 4.08334 3.49988C4.25597 3.49988 4.42234 3.53394 4.57803 3.60119L14.8238 8.18325L14.8342 8.18782C15.3089 8.3946 15.8213 8.50094 16.3391 8.50014C16.8569 8.49934 17.3689 8.39143 17.843 8.18319L28.0883 3.60132C28.2446 3.5339 28.4132 3.49935 28.5834 3.49982C29.2727 3.49982 29.8334 4.06057 29.8334 4.74982V22.25C29.8334 22.7644 29.5248 23.2203 29.0472 23.4113L29.0391 23.4146L16.7936 28.4128C16.5019 28.5283 16.1649 28.5283 15.8732 28.4128L3.62766 23.4147L3.61953 23.4114C3.14191 23.2204 2.83334 22.7644 2.83334 22.2499V4.74988Z" fill="#333333"/>
<path d="M21.5475 23.7181L26.5475 21.7186C27.1885 21.4623 27.5003 20.7348 27.244 20.0938C26.9876 19.4529 26.2602 19.1409 25.6191 19.3973L20.6191 21.3968C19.9781 21.6532 19.6663 22.3806 19.9226 23.0216C20.1778 23.6595 20.9035 23.9757 21.5475 23.7181ZM6.08308 9.71383L11.0831 11.8973C11.713 12.1724 12.4515 11.8873 12.7289 11.252C13.0051 10.6193 12.7163 9.88251 12.0836 9.6062L7.08358 7.4227C6.45102 7.14645 5.71408 7.43532 5.43777 8.06801C5.16152 8.7007 5.45045 9.43751 6.08308 9.71383ZM20.3825 17.3426C20.5517 17.4571 20.7463 17.5284 20.9494 17.5503C21.1525 17.5722 21.3578 17.544 21.5475 17.4681L26.5475 15.4686C26.7795 15.3759 26.9784 15.2157 27.1184 15.0088C27.2585 14.802 27.3334 14.5579 27.3334 14.308V8.56826C27.3334 8.36069 27.2817 8.15639 27.183 7.97379C27.0843 7.7912 26.9416 7.63606 26.768 7.52238C26.5943 7.4087 26.395 7.34007 26.1882 7.32266C25.9813 7.30526 25.7734 7.33964 25.5832 7.4227L20.5832 9.60576C20.3603 9.70306 20.1707 9.86327 20.0375 10.0667C19.9043 10.2702 19.8333 10.5081 19.8333 10.7513V16.3075C19.8333 16.7223 20.0391 17.11 20.3825 17.3426ZM22.3333 11.5695L24.8333 10.478V13.4616L22.3333 14.4614V11.5695ZM12.0475 15.1469L7.04745 13.1474C6.85778 13.0716 6.65242 13.0434 6.44934 13.0653C6.24625 13.0871 6.05161 13.1585 5.88245 13.273C5.71333 13.3875 5.57485 13.5417 5.47912 13.7222C5.3834 13.9026 5.33334 14.1038 5.33333 14.308V20.558C5.33332 20.8079 5.40818 21.052 5.54826 21.2589C5.68834 21.4657 5.88721 21.6259 6.1192 21.7186L11.1192 23.7181C11.3089 23.794 11.5142 23.8222 11.7173 23.8003C11.9204 23.7784 12.115 23.7071 12.2842 23.5925C12.4533 23.478 12.5918 23.3238 12.6876 23.1434C12.7833 22.9629 12.8334 22.7618 12.8334 22.5575V16.3075C12.8334 16.0577 12.7585 15.8136 12.6184 15.6067C12.4783 15.3998 12.2794 15.2396 12.0475 15.1469ZM10.3333 20.7114L7.83333 19.7116V16.1541L10.3333 17.1539V20.7114Z" fill="#333333"/>
<path d="M17.5833 12.2499C17.5833 11.5595 17.0237 10.9999 16.3333 10.9999C15.643 10.9999 15.0833 11.5595 15.0833 12.2499V24.7499C15.0833 25.4403 15.643 25.9999 16.3333 25.9999C17.0237 25.9999 17.5833 25.4403 17.5833 24.7499V12.2499Z" fill="#FFCC33"/>
</g>
<defs>
<clipPath id="clip0_5445_346">
<rect width="32" height="32" fill="white" transform="translate(0.333344)"/>
</clipPath>
</defs>
</svg>
