<svg width="76" height="76" viewBox="0 0 76 76" fill="none" xmlns="http://www.w3.org/2000/svg">
<g clip-path="url(#clip0_5415_16)">
<path fill-rule="evenodd" clip-rule="evenodd" d="M16.8737 16.0856C11.4348 17.0446 7.80308 22.2313 8.7621 27.6702L12.3223 47.8613C13.2811 53.2988 18.4663 56.9296 23.9039 55.9708L57.3899 50.0663C62.8288 49.1073 66.4605 43.9206 65.5015 38.4817L61.9417 18.2932C60.9827 12.8543 55.796 9.22255 50.3572 10.1816L16.8737 16.0856ZM3.83806 28.5384C2.39952 20.3801 7.8471 12.6001 16.0055 11.1616L49.4889 5.25754C57.6473 3.819 65.4272 9.26657 66.8658 17.4249L70.4255 37.6135C71.8641 45.7718 66.4165 53.5518 58.2581 54.9903L24.7721 60.8948C16.6151 62.3331 8.8366 56.8866 7.3983 48.7296L3.83806 28.5384ZM38.6345 20.3439C40.0075 20.4892 41.0029 21.72 40.8576 23.0931L38.6679 43.7877C38.5226 45.1608 37.2918 46.1561 35.9187 46.0108C34.5457 45.8655 33.5504 44.6347 33.6956 43.2616L35.8853 22.567C36.0306 21.1939 37.2615 20.1986 38.6345 20.3439ZM25.4698 25.8506C26.5999 26.6439 26.8729 28.2031 26.0796 29.3331L22.1007 35.0013C21.709 35.5589 21.8424 36.3233 22.3987 36.7155L28.0557 40.6096C29.193 41.3925 29.4803 42.9491 28.6974 44.0864C27.9145 45.2237 26.3579 45.511 25.2206 44.7281L19.5552 40.8282C19.5508 40.8251 19.5464 40.8221 19.542 40.819C16.7125 38.8443 16.0258 34.9514 18.0089 32.1278C18.009 32.1276 18.0092 32.1274 18.0094 32.1271L21.9873 26.4604C22.7806 25.3303 24.3398 25.0573 25.4698 25.8506ZM45.8655 22.2543C46.6561 21.1223 48.2146 20.8456 49.3465 21.6362L55.0227 25.6007C57.8525 27.5756 58.539 31.4689 56.5553 34.2926C56.5522 34.297 56.5491 34.3013 56.546 34.3057L52.5561 39.9082C51.7552 41.0328 50.1942 41.2952 49.0695 40.4943C47.9449 39.6933 47.6824 38.1323 48.4834 37.0077L52.464 31.4184C52.4651 31.4168 52.4661 31.4153 52.4672 31.4137C52.856 30.855 52.7199 30.0908 52.1611 29.7008L52.1604 29.7003L46.4835 25.7354C45.3516 24.9448 45.0749 23.3862 45.8655 22.2543ZM28.5391 67.8463C28.2993 66.4866 29.2072 65.1899 30.567 64.9502L54.2024 60.7826C55.5621 60.5428 56.8587 61.4508 57.0985 62.8105C57.3382 64.1702 56.4303 65.4669 55.0706 65.7066L31.4352 69.8742C30.0755 70.114 28.7788 69.206 28.5391 67.8463Z" fill="#333333" fill-opacity="0.1"/>
</g>
<defs>
<clipPath id="clip0_5415_16">
<rect width="64" height="64" fill="white" transform="translate(0.929443 12.0429) rotate(-10)"/>
</clipPath>
</defs>
</svg>
