<svg width="33" height="32" viewBox="0 0 33 32" fill="none" xmlns="http://www.w3.org/2000/svg">
<path d="M6.5 23.25V3.75C6.5 2.36931 7.61931 1.25 9 1.25H5.25C3.86931 1.25 2.75 2.36931 2.75 3.75V23.25C2.75 24.6308 3.86931 25.75 5.25 25.75H9C7.61931 25.75 6.5 24.6307 6.5 23.25Z" fill="#333333" fill-opacity="0.1"/>
<path fill-rule="evenodd" clip-rule="evenodd" d="M5.25 2.5C4.55967 2.5 4 3.05967 4 3.75V23.25C4 23.9403 4.55967 24.5 5.25 24.5H20.25C20.9403 24.5 21.5 23.9403 21.5 23.25V6.25C21.5 5.90451 21.3614 5.59371 21.1339 5.36613L18.6339 2.86613C18.4063 2.63853 18.0955 2.5 17.75 2.5H5.25ZM1.5 3.75C1.5 1.67896 3.17896 0 5.25 0H17.75C18.7852 0 19.7244 0.421099 20.4016 1.09837L22.9016 3.59837C23.5788 4.27554 24 5.21474 24 6.25V23.25C24 25.321 22.321 27 20.25 27H5.25C3.17896 27 1.5 25.321 1.5 23.25V3.75ZM26.8661 6.83062C27.3543 6.34246 28.1457 6.34246 28.6339 6.83062L30.4016 8.59837C31.0788 9.27554 31.5 10.2147 31.5 11.25V28.25C31.5 30.321 29.821 32 27.75 32H12.75C12.0596 32 11.5 31.4404 11.5 30.75C11.5 30.0596 12.0596 29.5 12.75 29.5H27.75C28.4403 29.5 29 28.9403 29 28.25V11.25C29 10.9045 28.8614 10.5937 28.6339 10.3661L26.8661 8.59838C26.378 8.11023 26.378 7.31877 26.8661 6.83062Z" fill="#333333"/>
<path fill-rule="evenodd" clip-rule="evenodd" d="M6.5 8.75C6.5 8.05964 7.05964 7.5 7.75 7.5H17.75C18.4404 7.5 19 8.05964 19 8.75C19 9.44036 18.4404 10 17.75 10H7.75C7.05964 10 6.5 9.44036 6.5 8.75ZM6.5 13.75C6.5 13.0596 7.05964 12.5 7.75 12.5H17.75C18.4404 12.5 19 13.0596 19 13.75C19 14.4404 18.4404 15 17.75 15H7.75C7.05964 15 6.5 14.4404 6.5 13.75ZM6.5 18.75C6.5 18.0596 7.05964 17.5 7.75 17.5H12.75C13.4404 17.5 14 18.0596 14 18.75C14 19.4404 13.4404 20 12.75 20H7.75C7.05964 20 6.5 19.4404 6.5 18.75Z" fill="#FFCC33"/>
</svg>
