<svg width="33" height="32" viewBox="0 0 33 32" fill="none" xmlns="http://www.w3.org/2000/svg">
<g clip-path="url(#clip0_5445_339)">
<path d="M5.77777 24.75V12.25C5.77777 9.48844 8.0164 7.25 10.7778 7.25H7.02777C4.2664 7.25 2.02777 9.48844 2.02777 12.25V24.75C2.02777 27.5114 4.2664 29.75 7.02777 29.75H10.7778C8.0164 29.75 5.77777 27.5114 5.77777 24.75Z" fill="#333333" fill-opacity="0.1"/>
<path fill-rule="evenodd" clip-rule="evenodd" d="M7.02777 8.5C4.95669 8.5 3.27777 10.1789 3.27777 12.25V24.75C3.27777 26.8211 4.95669 28.5 7.02777 28.5H26.5278C28.5989 28.5 30.2778 26.8211 30.2778 24.75V12.25C30.2778 10.1789 28.5989 8.5 26.5278 8.5H24.2778C23.5874 8.5 23.0278 7.94036 23.0278 7.25C23.0278 6.55964 23.5874 6 24.2778 6H26.5278C29.9796 6 32.7778 8.79821 32.7778 12.25V24.75C32.7778 28.2018 29.9796 31 26.5278 31H7.02777C3.57598 31 0.777771 28.2018 0.777771 24.75V12.25C0.777771 8.79821 3.57598 6 7.02777 6H9.52777C10.2181 6 10.7778 6.55964 10.7778 7.25C10.7778 7.94036 10.2181 8.5 9.52777 8.5H7.02777Z" fill="#333333"/>
<path fill-rule="evenodd" clip-rule="evenodd" d="M9.52777 16C8.83744 16 8.27777 16.5597 8.27777 17.25V22.25C8.27777 22.9403 8.83744 23.5 9.52777 23.5H11.7778C12.4681 23.5 13.0278 22.9403 13.0278 22.25V17.25C13.0278 16.5597 12.4681 16 11.7778 16H9.52777ZM5.77777 17.25C5.77777 15.179 7.45673 13.5 9.52777 13.5H11.7778C13.8488 13.5 15.5278 15.179 15.5278 17.25V22.25C15.5278 24.321 13.8488 26 11.7778 26H9.52777C7.45673 26 5.77777 24.321 5.77777 22.25V17.25ZM18.0278 14.75C18.0278 14.0596 18.5874 13.5 19.2778 13.5H26.5278C27.2181 13.5 27.7778 14.0596 27.7778 14.75C27.7778 15.4404 27.2181 16 26.5278 16H19.2778C18.5874 16 18.0278 15.4404 18.0278 14.75ZM18.0278 19.75C18.0278 19.0596 18.5874 18.5 19.2778 18.5H26.5278C27.2181 18.5 27.7778 19.0596 27.7778 19.75C27.7778 20.4404 27.2181 21 26.5278 21H19.2778C18.5874 21 18.0278 20.4404 18.0278 19.75ZM18.0278 24.75C18.0278 24.0596 18.5874 23.5 19.2778 23.5H26.5278C27.2181 23.5 27.7778 24.0596 27.7778 24.75C27.7778 25.4404 27.2181 26 26.5278 26H19.2778C18.5874 26 18.0278 25.4404 18.0278 24.75Z" fill="#333333"/>
<path fill-rule="evenodd" clip-rule="evenodd" d="M13.0278 2.25C13.0278 1.55964 13.5874 1 14.2778 1H19.2778C19.9681 1 20.5278 1.55964 20.5278 2.25V7.25C20.5278 9.32104 18.8488 11 16.7778 11C14.7067 11 13.0278 9.32104 13.0278 7.25V2.25ZM15.5278 3.5V7.25C15.5278 7.94033 16.0874 8.5 16.7778 8.5C17.4681 8.5 18.0278 7.94033 18.0278 7.25V3.5H15.5278Z" fill="#FFCC33"/>
</g>
<defs>
<clipPath id="clip0_5445_339">
<rect width="32" height="32" fill="white" transform="translate(0.777771)"/>
</clipPath>
</defs>
</svg>
