<svg width="33" height="32" viewBox="0 0 33 32" fill="none" xmlns="http://www.w3.org/2000/svg">
<g clip-path="url(#clip0_5445_362)">
<path d="M21.409 5.55058C21.2444 4.82276 20.9879 4.15351 20.5931 3.61726C19.7167 2.42683 17.8844 2.6462 17.3609 4.0287L16.009 10.5177C15.6395 11.4934 14.549 11.9849 13.5733 11.6154L11.9122 12.2899L15.3423 13.6281C17.1372 14.3284 19.1326 13.2561 19.5391 11.3728L20.4867 6.55858C20.6682 6.0792 21.0072 5.74001 21.409 5.55058Z" fill="#333333" fill-opacity="0.1"/>
<path d="M28.2223 23.968C27.8739 23.968 27.5243 23.9055 27.1884 23.7784L5.97075 15.7187C4.34231 15.1021 3.05044 13.8874 2.33444 12.2986C1.6185 10.7099 1.56406 8.93749 2.18119 7.30781L2.18481 7.29837L3.43375 4.07906C3.68344 3.43549 4.4075 3.11618 5.05125 3.36581C5.69488 3.61549 6.01419 4.33968 5.7645 4.98331L4.51744 8.19768C4.13856 9.20162 4.17269 10.293 4.61369 11.2715C5.05525 12.2514 5.85206 13.0007 6.85719 13.3812L28.0749 21.4409C28.2743 21.5164 28.4437 21.4144 28.5073 21.3671C28.5828 21.3107 28.7074 21.1871 28.6932 20.9924C28.5824 19.4822 27.8319 18.4527 26.462 17.9323L21.5124 16.1084C21.2806 16.0229 21.0793 15.8707 20.9339 15.671C20.7885 15.4712 20.7056 15.2329 20.6956 14.9861L20.3741 7.05699C20.2659 5.82924 20.0009 4.92143 19.5864 4.35837C19.3809 4.07924 19.1017 4.08437 18.9913 4.09956C18.8756 4.11543 18.6749 4.17656 18.5594 4.40399C18.5594 4.40399 17.2011 10.8994 17.1779 10.9604C16.7031 12.2143 15.5064 12.9879 14.2388 12.988C13.8601 12.9879 13.4845 12.9189 13.1305 12.7844L7.37131 10.5732C6.72681 10.3257 6.405 9.60268 6.65244 8.95818C6.89988 8.31374 7.62313 7.99187 8.26738 8.23931L14.0213 10.4485C14.3228 10.5627 14.6641 10.4264 14.8106 10.1413C14.8106 10.1413 16.1686 3.64712 16.1918 3.58606C16.5984 2.51224 17.518 1.77831 18.6516 1.62281C19.7863 1.46712 20.9159 1.94749 21.5996 2.87624C22.3039 3.83299 22.7186 5.13949 22.8673 6.87062C22.8689 6.88937 23.1598 14.0512 23.1598 14.0512L27.332 15.5887L27.3424 15.5926C29.6384 16.4621 31.0036 18.3148 31.1864 20.8097C31.2595 21.8057 30.8168 22.7632 30.0022 23.3709C29.4746 23.7645 28.8508 23.9679 28.2223 23.968Z" fill="#333333"/>
<path d="M31.1945 30.4062H1.69446C1.00408 30.4062 0.444458 29.8466 0.444458 29.1562C0.444458 28.4658 1.00408 27.9062 1.69446 27.9062H31.1945C31.8848 27.9062 32.4445 28.4658 32.4445 29.1562C32.4445 29.8466 31.8848 30.4062 31.1945 30.4062Z" fill="#FFCC33"/>
</g>
<defs>
<clipPath id="clip0_5445_362">
<rect width="32" height="32" fill="white" transform="translate(0.444458)"/>
</clipPath>
</defs>
</svg>
