<svg width="76" height="76" viewBox="0 0 76 76" fill="none" xmlns="http://www.w3.org/2000/svg">
<g clip-path="url(#clip0_5415_1704)">
<path fill-rule="evenodd" clip-rule="evenodd" d="M60.1866 37.1343C60.4264 38.494 61.723 39.4019 63.0828 39.1622C67.1621 38.4429 69.8857 34.5529 69.1665 30.4738C68.4472 26.3946 64.5574 23.6708 60.478 24.3901C59.1183 24.6298 58.2104 25.9265 58.4502 27.2862C58.6899 28.6459 59.9866 29.5539 61.3463 29.3141C62.7061 29.0743 64.0027 29.9823 64.2424 31.342C64.4822 32.7017 63.5743 33.9984 62.2145 34.2381C60.8548 34.4779 59.9469 35.7745 60.1866 37.1343Z" fill="#333333" fill-opacity="0.1"/>
<path fill-rule="evenodd" clip-rule="evenodd" d="M53.0768 63.7724C50.8564 64.1256 48.7005 63.4611 47.0982 62.1265L35.5746 52.5281C35.2953 52.2954 34.9686 52.1264 34.6173 52.033C34.266 51.9395 33.8986 51.9238 33.5406 51.9869L18.5917 54.6228C13.1528 55.5818 7.9662 51.9502 7.00717 46.5112L5.27069 36.6632C4.31166 31.2243 7.94335 26.0377 13.3823 25.0787L28.3311 22.4428C28.6891 22.3796 29.029 22.2392 29.3272 22.0312C29.6253 21.8232 29.8745 21.5527 30.0574 21.2386L37.6032 8.27764C38.6523 6.47587 40.4508 5.1137 42.6583 4.68626C46.8346 3.87729 50.7707 6.76866 51.4885 10.8397L59.2699 54.97C59.9877 59.0408 57.2779 63.1042 53.0768 63.7724ZM54.3458 55.8382C54.5994 57.2764 53.6149 58.624 52.2914 58.8345C51.5539 58.9518 50.8386 58.7347 50.2982 58.2846L38.7748 48.6863C37.9368 47.9883 36.9566 47.4814 35.9027 47.201C34.8488 46.9206 33.7463 46.8735 32.6723 47.0629L17.7235 49.6988C15.004 50.1783 12.4107 48.3624 11.9312 45.643L10.1947 35.7949C9.71522 33.0755 11.5311 30.4822 14.2505 30.0027L29.1994 27.3668C30.2734 27.1774 31.2932 26.7561 32.1877 26.1321C33.0821 25.5082 33.8298 24.6967 34.3785 23.7542M34.3785 23.7542L41.9241 10.7934C42.2781 10.1856 42.876 9.73695 43.6089 9.59507C44.9246 9.34021 46.3109 10.2697 46.5645 11.7079L54.3458 55.8382" fill="#333333" fill-opacity="0.1"/>
<path fill-rule="evenodd" clip-rule="evenodd" d="M15.6646 66.8163C16.3839 70.8954 20.2737 73.6193 24.353 72.9C28.4323 72.1807 31.156 68.2907 30.4367 64.2116L29.7421 60.2724C29.5024 58.9126 28.2057 58.0047 26.846 58.2445C25.4862 58.4842 24.5783 59.7809 24.8181 61.1406L25.5127 65.0798C25.7524 66.4395 24.8445 67.7362 23.4848 67.9759C22.125 68.2157 20.8284 67.3078 20.5887 65.9481L19.8941 62.0088C19.6543 60.6491 18.3577 59.7412 16.9979 59.9809C15.6382 60.2207 14.7303 61.5173 14.97 62.8771L15.6646 66.8163Z" fill="#333333" fill-opacity="0.1"/>
<path fill-rule="evenodd" clip-rule="evenodd" d="M29.1653 42.6042C30.525 42.3644 31.4329 41.0678 31.1932 39.708L30.3249 34.784C30.0852 33.4243 28.7885 32.5163 27.4288 32.7561C26.0691 32.9959 25.1611 34.2925 25.4009 35.6522L26.2691 40.5763C26.5089 41.936 27.8055 42.8439 29.1653 42.6042Z" fill="#333333" fill-opacity="0.1"/>
</g>
<defs>
<clipPath id="clip0_5415_1704">
<rect width="64" height="64" fill="white" transform="translate(0.929443 12.0429) rotate(-10)"/>
</clipPath>
</defs>
</svg>
