<svg width="33" height="32" viewBox="0 0 33 32" fill="none" xmlns="http://www.w3.org/2000/svg">
<path d="M11.5 25.75V6.25C11.5 3.48856 13.7386 1.25 16.5 1.25H12.75C9.98856 1.25 7.75 3.48856 7.75 6.25V25.75C7.75 28.5114 9.98856 30.75 12.75 30.75H16.5C13.7386 30.75 11.5 28.5114 11.5 25.75Z" fill="#333333" fill-opacity="0.1"/>
<path d="M20.25 32H12.75C9.30375 32 6.5 29.1963 6.5 25.75V6.25C6.5 2.80375 9.30375 0 12.75 0H20.25C23.6963 0 26.5 2.80375 26.5 6.25V25.75C26.5 29.1963 23.6963 32 20.25 32ZM12.75 2.5C10.6823 2.5 9 4.18225 9 6.25V25.75C9 27.8177 10.6823 29.5 12.75 29.5H20.25C22.3177 29.5 24 27.8177 24 25.75V6.25C24 4.18225 22.3177 2.5 20.25 2.5H12.75Z" fill="#333333"/>
<path d="M17.75 27H15.25C14.5596 27 14 26.4404 14 25.75C14 25.0596 14.5596 24.5 15.25 24.5H17.75C18.4404 24.5 19 25.0596 19 25.75C19 26.4404 18.4404 27 17.75 27Z" fill="#FFCC33"/>
<path d="M17.75 7.5H15.25C14.5596 7.5 14 6.94037 14 6.25C14 5.55963 14.5596 5 15.25 5H17.75C18.4404 5 19 5.55963 19 6.25C19 6.94037 18.4404 7.5 17.75 7.5Z" fill="#333333"/>
</svg>
