<svg width="33" height="32" viewBox="0 0 33 32" fill="none" xmlns="http://www.w3.org/2000/svg">
<g clip-path="url(#clip0_5628_3615)">
<path d="M5.5 23.5V13.5C5.5 10.7386 7.73856 8.5 10.5 8.5C11.7649 8.5 12.8974 7.73731 13.3859 6.5705C14.1409 4.767 15.9225 3.5 18 3.5H14.25C12.1725 3.5 10.3909 4.767 9.63587 6.5705C9.14737 7.73731 8.01494 8.5 6.75 8.5C3.98856 8.5 1.75 10.7386 1.75 13.5V23.5C1.75 26.2614 3.98856 28.5 6.75 28.5H10.5C7.73856 28.5 5.5 26.2614 5.5 23.5Z" fill="#333333" fill-opacity="0.1"/>
<path d="M26.25 7.25C25.4929 7.25 24.8127 6.79381 24.5171 6.08781C23.5411 3.75644 21.2774 2.25 18.75 2.25H14.25C11.7226 2.25 9.45887 3.75644 8.48281 6.08781C8.18725 6.79381 7.50706 7.25 6.75 7.25C3.30375 7.25 0.5 10.0538 0.5 13.5V23.5C0.5 26.9463 3.30375 29.75 6.75 29.75H26.25C29.6963 29.75 32.5 26.9463 32.5 23.5V13.5C32.5 10.0538 29.6963 7.25 26.25 7.25ZM30 23.5C30 25.5677 28.3177 27.25 26.25 27.25H6.75C4.68225 27.25 3 25.5677 3 23.5V13.5C3 11.4323 4.68225 9.75 6.75 9.75C8.51769 9.75 10.103 8.69144 10.7889 7.05325C11.3747 5.65406 12.7332 4.75 14.25 4.75H18.75C20.2668 4.75 21.6253 5.65406 22.2111 7.05325C22.8969 8.69144 24.4823 9.75 26.25 9.75C28.3177 9.75 30 11.4323 30 13.5V23.5Z" fill="#333333"/>
<path d="M26.25 14.75C26.9404 14.75 27.5 14.1904 27.5 13.5C27.5 12.8096 26.9404 12.25 26.25 12.25C25.5596 12.25 25 12.8096 25 13.5C25 14.1904 25.5596 14.75 26.25 14.75Z" fill="#333333"/>
<path d="M16.5 12.25C13.0538 12.25 10.25 15.0538 10.25 18.5C10.25 21.9462 13.0538 24.75 16.5 24.75C19.9463 24.75 22.75 21.9462 22.75 18.5C22.75 15.0538 19.9463 12.25 16.5 12.25ZM16.5 22.25C14.4323 22.25 12.75 20.5677 12.75 18.5C12.75 16.4323 14.4323 14.75 16.5 14.75C18.5677 14.75 20.25 16.4323 20.25 18.5C20.25 20.5677 18.5677 22.25 16.5 22.25ZM6.75 14.75C6.05963 14.75 5.5 15.3096 5.5 16V21C5.5 21.6904 6.05963 22.25 6.75 22.25C7.44037 22.25 8 21.6904 8 21V16C8 15.3096 7.44037 14.75 6.75 14.75Z" fill="#333333"/>
<path d="M19 7.25H14C13.3096 7.25 12.75 7.80963 12.75 8.5C12.75 9.19037 13.3096 9.75 14 9.75H19C19.6904 9.75 20.25 9.19037 20.25 8.5C20.25 7.80963 19.6904 7.25 19 7.25Z" fill="#FFCC33"/>
</g>
<defs>
<clipPath id="clip0_5628_3615">
<rect width="32" height="32" fill="white" transform="translate(0.5)"/>
</clipPath>
</defs>
</svg>
