<svg width="76" height="76" viewBox="0 0 76 76" fill="none" xmlns="http://www.w3.org/2000/svg">
<g clip-path="url(#clip0_5415_512)">
<path fill-rule="evenodd" clip-rule="evenodd" d="M44.1437 64.0971C47.5358 66.4714 52.2101 65.6477 54.5863 62.2572C54.5866 62.2568 54.5869 62.2563 54.5872 62.2559C55.1897 61.3973 55.605 60.4218 55.8062 59.3924L65.2342 11.0584L65.2343 11.0583C65.7834 8.24375 64.6829 5.2325 62.1743 3.47589C59.6654 1.71919 56.4594 1.71502 54.0023 3.19373L11.8082 28.5843C10.9094 29.1253 10.1346 29.8494 9.53391 30.7094C7.15969 34.1017 7.98382 38.7762 11.3749 41.1521C12.4519 41.9084 13.7096 42.3671 15.0207 42.4815L15.021 42.4816L32.284 43.9904L32.2843 43.9905C32.7187 44.0284 33.1354 44.1804 33.4922 44.4311L33.4987 44.4356C33.8563 44.6852 34.1417 45.0248 34.326 45.4202L34.3261 45.4203L41.6482 61.1261L41.6483 61.1264C42.2042 62.319 43.065 63.3437 44.1437 64.0971ZM50.4924 59.3867C49.7004 60.5177 48.1416 60.7926 47.0104 60.0006L47.0073 59.9984C46.6497 59.7488 46.3643 59.4092 46.1801 59.0139L46.18 59.0137L38.8579 43.3077C38.302 42.1152 37.4413 41.0906 36.3628 40.3372C35.2863 39.5819 34.0296 39.1239 32.7194 39.0094L15.4561 37.5005L15.4557 37.5005C15.0214 37.4626 14.6047 37.3106 14.248 37.06L14.2446 37.0576C13.1135 36.2657 12.8387 34.7069 13.6307 33.5758L13.6327 33.5729C13.8318 33.2877 14.0887 33.0476 14.3866 32.8681L56.5804 7.47781C57.4059 6.981 58.4742 6.98897 59.3064 7.57165C60.1383 8.1542 60.5113 9.15523 60.3268 10.1009L60.3267 10.101L50.8991 58.4333C50.899 58.4336 50.899 58.4339 50.8989 58.4342C50.832 58.7757 50.6942 59.0993 50.4942 59.3841L50.4924 59.3867Z" fill="#333333" fill-opacity="0.1"/>
<path fill-rule="evenodd" clip-rule="evenodd" d="M12.6369 74.2224C13.7679 75.0143 15.3268 74.7394 16.1188 73.6084L24.7224 61.3212C25.5143 60.1901 25.2395 58.6313 24.1085 57.8393C22.9774 57.0474 21.4186 57.3223 20.6266 58.4533L12.023 70.7405C11.231 71.8716 11.5059 73.4304 12.6369 74.2224Z" fill="#333333" fill-opacity="0.1"/>
<path fill-rule="evenodd" clip-rule="evenodd" d="M26.5643 71.7666C27.6953 72.5585 29.2542 72.2837 30.0461 71.1527L35.7818 62.9612C36.5737 61.8302 36.2989 60.2714 35.1679 59.4794C34.0368 58.6875 32.478 58.9623 31.686 60.0934L25.9503 68.2848C25.1584 69.4158 25.4333 70.9747 26.5643 71.7666Z" fill="#333333" fill-opacity="0.1"/>
<path fill-rule="evenodd" clip-rule="evenodd" d="M10.1812 60.295C11.3122 61.087 12.871 60.8121 13.663 59.6811L19.3987 51.4897C20.1906 50.3586 19.9158 48.7998 18.7847 48.0078C17.6537 47.2159 16.0949 47.4908 15.3029 48.6218L9.56722 56.8132C8.77528 57.9442 9.05015 59.5031 10.1812 60.295Z" fill="#333333" fill-opacity="0.1"/>
<path fill-rule="evenodd" clip-rule="evenodd" d="M39.2311 36.2419C40.3621 37.0339 41.921 36.759 42.7129 35.628L51.3166 23.3407C52.1085 22.2097 51.8337 20.6508 50.7026 19.8589C49.5716 19.0669 48.0128 19.3418 47.2208 20.4728L38.6172 32.7601C37.8252 33.8911 38.1001 35.45 39.2311 36.2419Z" fill="#333333" fill-opacity="0.1"/>
</g>
<defs>
<clipPath id="clip0_5415_512">
<rect width="64" height="64" fill="white" transform="translate(0.929443 12.0429) rotate(-10)"/>
</clipPath>
</defs>
</svg>
