<svg width="76" height="76" viewBox="0 0 76 76" fill="none" xmlns="http://www.w3.org/2000/svg">
<g clip-path="url(#clip0_5415_38)">
<path fill-rule="evenodd" clip-rule="evenodd" d="M6.07421 41.2204C7.51251 49.3774 15.291 54.8239 23.448 53.3856L56.9339 47.4811C65.0924 46.0426 70.5398 38.2628 69.1013 30.1043L66.5617 15.7016C65.1232 7.54324 57.3434 2.09564 49.1849 3.5342L15.7015 9.43822C7.54305 10.8768 2.09563 18.6567 3.53416 26.815L6.07421 41.2204ZM22.5797 48.4616C17.1422 49.4203 11.957 45.7896 10.9983 40.3521L8.4582 25.9468C7.49918 20.5079 11.1308 15.3213 16.5698 14.3623L50.0531 8.45824C55.4921 7.4992 60.6786 11.1309 61.6376 16.5698L64.1772 30.9726C65.1363 36.4116 61.5047 41.5981 56.0657 42.5571L22.5797 48.4616Z" fill="#333333" fill-opacity="0.1"/>
<path fill-rule="evenodd" clip-rule="evenodd" d="M34.4065 34.71C33.9292 35.1209 33.2509 34.8223 33.1592 34.3023L31.4599 24.6653C31.3682 24.1453 31.9035 23.6327 32.4925 23.8555C32.4925 23.8555 32.4926 23.8555 32.4925 23.8555L41.4505 27.2443C41.9713 27.4413 42.0872 28.0984 41.6652 28.4617L34.4065 34.71ZM37.6684 38.4994C34.3165 41.3848 29.0146 39.5912 28.2351 35.1705L26.5359 25.5336C25.7564 21.1128 30.1251 17.6142 34.2616 19.1789L43.2195 22.5678C43.2195 22.5677 43.2196 22.5678 43.2195 22.5678C47.2883 24.1069 48.224 29.4133 44.9271 32.2512C44.927 32.2512 44.9271 32.2512 44.9271 32.2512L37.6684 38.4994C37.6684 38.4994 37.6684 38.4994 37.6684 38.4994Z" fill="#333333" fill-opacity="0.1"/>
<path fill-rule="evenodd" clip-rule="evenodd" d="M36.0475 70.8379C37.4073 70.5982 38.3152 69.3015 38.0754 67.9418L36.339 58.0937C36.0992 56.734 34.8026 55.8261 33.4428 56.0658C32.0831 56.3056 31.1752 57.6022 31.4149 58.962L33.1514 68.81C33.3912 70.1698 34.6878 71.0777 36.0475 70.8379Z" fill="#333333" fill-opacity="0.1"/>
<path fill-rule="evenodd" clip-rule="evenodd" d="M42.1312 62.1495C42.371 63.5093 43.6676 64.4172 45.0274 64.1774L71.7402 59.4672C73.0999 59.2275 74.0078 57.9308 73.7681 56.5711C73.5283 55.2114 72.2317 54.3034 70.8719 54.5432L44.1591 59.2534C42.7994 59.4931 41.8915 60.7898 42.1312 62.1495Z" fill="#333333" fill-opacity="0.1"/>
<path fill-rule="evenodd" clip-rule="evenodd" d="M10.7406 67.6845C10.9803 69.0443 12.277 69.9522 13.6367 69.7124L25.3313 67.6504C26.691 67.4106 27.5989 66.114 27.3592 64.7542C27.1194 63.3945 25.8228 62.4866 24.463 62.7263L12.7685 64.7884C11.4087 65.0282 10.5008 66.3248 10.7406 67.6845Z" fill="#333333" fill-opacity="0.1"/>
</g>
<defs>
<clipPath id="clip0_5415_38">
<rect width="64" height="64" fill="white" transform="translate(0.929443 12.0429) rotate(-10)"/>
</clipPath>
</defs>
</svg>
